<?xml version="1.0" encoding="UTF-8"?>
<svg id="Layer_2" data-name="Layer 2" xmlns="http://www.w3.org/2000/svg" viewBox="0 0 912 198.71">
  <defs>
    <style>
      .cls-1 {
        fill: #5dd545;
      }

      .cls-1, .cls-2 {
        stroke-width: 0px;
      }

      .cls-2 {
        fill: #fff;
      }
    </style>
  </defs>
  <g id="Layer_1-2" data-name="Layer 1">
    <g>
      <path class="cls-1" d="m103.1,173.89c-17.77,12.75-44.9,12.99-61.92-1.4C18.93,153.68,2.38,130.61.26,100.07-1.86,69.52,9.06,44.26,32.28,24.38c5.65-4.84,11.62-9.34,17.66-13.69,22.8-16.45,54.54-13.8,73.09,7.19,10.8,12.22,19.82,26.03,29.68,39.18-10.99,11.11-32.92,10.68-46.54-1.39-1.9-1.69-3.52-3.69-5.28-5.53-5.02-5.28-11.37-6.23-17.19-2.02-6.37,4.62-12.71,9.35-18.58,14.58-16.33,14.52-18.5,38.69-4.86,56.56,13.93,18.27,28.34,36.18,42.85,54.64Z"/>
      <path class="cls-2" d="m143.72,24.96c18.76-15.22,43.83-14.22,63.48-.83,22.27,15.18,35.88,32.89,48.78,58.02,12.73,26.07-3.38,50.99-17.67,75.24-3.71,6.29-7.86,12.32-12.47,17.99-3.38,4.15-5.88,6.71-9.67,10.2-21.6,19.87-50.82,14.95-74.3.17-12.4-9.14-69.08-45.49-45.72-92.02.6-1.19,14.68-23.55,15.38-24.75,8.97,2.99,23.92,8.97,17.94,35.88-8.97,20.93,35.88,59.79,51.14,44.88,3.91-3.79,7.73-7.67,11.55-11.55,18.04-24.36,29.99-33.33-.46-64.73-14.61-14.66-29.2-29.32-43.79-43.99-1.36-1.37-2.63-2.82-4.18-4.49Z"/>
    </g>
    <g>
      <g>
        <path class="cls-2" d="m304.36,177.57c.68,6.3,6.66,10.46,14.98,10.46,7.88,0,13.61-4.16,13.61-9.89,0-4.93-3.43-7.96-11.27-9.98l-7.47-1.94c-10.74-2.74-15.51-7.47-15.51-15.39,0-9.69,8.48-16.48,20.6-16.48s19.99,6.87,20.32,16.64h-7.27c-.65-6.26-5.7-10.1-13.29-10.1s-12.8,3.92-12.8,9.61c0,4.4,3.23,7.03,11.15,9.09l6.1,1.62c12.07,3.03,16.96,7.68,16.96,16.04,0,10.66-8.4,17.32-21.81,17.32-12.36,0-20.92-6.7-21.61-17h7.31Z"/>
        <path class="cls-2" d="m369.71,135.33c10.94,0,18.66,7.68,18.66,18.7s-7.79,18.78-18.74,18.78h-13.45v20.8h-7.27v-58.28h20.8Zm-13.53,31.02h11.63c8.32,0,13.08-4.56,13.08-12.31s-4.72-12.24-13.08-12.24h-11.63v24.55Z"/>
        <path class="cls-2" d="m424.24,176.93h-23.18l-5.85,16.68h-7.63l21.48-58.28h7.19l21.49,58.28h-7.63l-5.86-16.68Zm-21.04-6.18h18.9l-9.33-26.57h-.24l-9.33,26.57Z"/>
        <path class="cls-2" d="m440.48,164.45c0-18.29,10.3-30.09,26.25-30.09,12.68,0,22.33,7.72,24.19,19.35h-7.35c-1.86-7.63-8.52-12.64-16.84-12.64-11.39,0-18.78,9.21-18.78,23.38s7.31,23.43,18.82,23.43c8.56,0,14.7-4.12,16.8-11.23h7.35c-2.66,11.51-11.31,17.93-24.19,17.93-16.07,0-26.25-11.67-26.25-30.13Z"/>
        <path class="cls-2" d="m535.55,193.61h-36.11v-58.28h36.11v6.54h-28.84v18.7h27.34v6.46h-27.34v20.03h28.84v6.54Z"/>
      </g>
      <g>
        <path class="cls-2" d="m606.39,193.61h-37.68v-58.28h12.2v48.18h25.48v10.1Z"/>
        <path class="cls-2" d="m652.2,193.61h-38.61v-58.28h38.61v10.06h-26.41v14.06h24.92v9.37h-24.92v14.7h26.41v10.1Z"/>
        <path class="cls-2" d="m660.97,193.61v-58.28h12.2v58.28h-12.2Z"/>
        <path class="cls-2" d="m682.84,193.61v-58.28h25.36c10.94,0,17.81,5.62,17.81,14.54,0,6.39-4.77,11.71-10.94,12.64v.32c7.91.61,13.73,6.38,13.73,14.1,0,10.25-7.71,16.68-20.15,16.68h-25.81Zm12.2-34.04h8.77c6.5,0,10.22-2.87,10.22-7.8s-3.27-7.35-8.97-7.35h-10.02v15.15Zm10.5,24.96c7.03,0,10.83-2.99,10.83-8.57s-3.92-8.36-11.11-8.36h-10.22v16.92h10.5Z"/>
        <path class="cls-2" d="m735.71,193.61v-58.28h10.18l27.22,37.97h.32v-37.97h11.67v58.28h-10.1l-27.26-38.17h-.36v38.17h-11.67Z"/>
        <path class="cls-2" d="m794.75,193.61v-58.28h12.2v58.28h-12.2Z"/>
        <path class="cls-2" d="m830.56,193.61v-48.22h-16.84v-10.06h45.92v10.06h-16.88v48.22h-12.2Z"/>
        <path class="cls-2" d="m865.09,185.66l29.6-39.95v-.32h-28.92v-10.06h43.5v7.92l-29.48,39.98v.28h30.29v10.1h-44.99v-7.95Z"/>
      </g>
      <g>
        <path class="cls-1" d="m315.5,102.68h-19.23l-25.78-97.37h21.12l15.32,70.51h.54l18.22-70.51h17.21l18.22,70.51h.54l15.39-70.51h21.12l-25.84,97.37h-19.23l-18.49-66.53h-.61l-18.49,66.53Z"/>
        <path class="cls-1" d="m496.66,54.02c0,30.97-18.15,50.34-46.96,50.34s-46.97-19.37-46.97-50.34S420.82,3.62,449.7,3.62s46.96,19.36,46.96,50.4Zm-73.14,0c0,20.38,10.19,33.27,26.18,33.27s26.11-12.89,26.11-33.27-10.19-33.4-26.11-33.4-26.18,12.96-26.18,33.4Z"/>
        <path class="cls-1" d="m530.17,102.68h-20.38V5.31h39.88c22.4,0,35.22,11.81,35.22,31.04,0,12.48-6.48,23.28-17.68,27.66l20.51,38.67h-23.08l-18.15-35.63h-16.33v35.63Zm0-50.4h17.54c10.26,0,16.26-5.87,16.26-15.52s-6.34-15.52-16.46-15.52h-17.34v31.04Z"/>
        <path class="cls-1" d="m598.28,102.68V5.31h20.38v44.4h.61l36.57-44.4h22.67l-36.03,43.19,38.53,54.18h-24.36l-28.88-40.69-9.11,10.93v29.76h-20.38Z"/>
        <path class="cls-1" d="m689.61,102.68V5.31h20.38v97.37h-20.38Z"/>
        <path class="cls-1" d="m726.2,102.68V5.31h17l45.48,63.42h.54V5.31h19.5v97.37h-16.87l-45.55-63.77h-.61v63.77h-19.5Z"/>
        <path class="cls-1" d="m868.81,104.36c-29.08,0-46.9-19.03-46.9-50.68s17.82-50.07,46.42-50.07c22.74,0,39.88,13.43,42.78,33.13h-20.45c-2.97-10.19-11.27-16.26-22.27-16.26-16.06,0-25.71,12.21-25.71,32.93s10.26,34.01,26.45,34.01c13.29,0,22.54-8.17,22.94-20.25l.07-1.55h-21.19v-14.84h41.03v11c0,26.52-16.06,42.58-43.19,42.58Z"/>
      </g>
    </g>
  </g>
</svg>