<?xml version="1.0" encoding="UTF-8"?>
<svg id="Layer_2" data-name="Layer 2" xmlns="http://www.w3.org/2000/svg" viewBox="0 0 733 186.56">
  <defs>
    <style>
      .cls-1 {
        fill: #3e3a39;
      }

      .cls-1, .cls-2 {
        stroke-width: 0px;
      }

      .cls-2 {
        fill: #5dc248;
      }
    </style>
  </defs>
  <g id="Layer_1-2" data-name="Layer 1">
    <g>
      <g>
        <path class="cls-2" d="m103.1,177.08c-17.77,12.75-44.9,12.99-61.92-1.4C18.93,156.87,2.38,133.8.26,103.26-1.86,72.7,9.06,47.44,32.28,27.57c5.65-4.84,11.62-9.34,17.66-13.69C72.74-2.57,104.48.07,123.03,21.06c10.8,12.22,19.82,26.03,29.68,39.18-10.99,11.11-32.92,10.68-46.54-1.39-1.9-1.69-3.52-3.69-5.28-5.53-5.02-5.28-11.37-6.23-17.19-2.02-6.37,4.62-12.71,9.35-18.58,14.58-16.33,14.52-18.5,38.69-4.86,56.56,13.93,18.27,28.34,36.18,42.85,54.64Z"/>
        <path class="cls-1" d="m120.72,11.15c18.76-15.22,43.83-14.22,63.48-.83,22.27,15.18,35.88,32.89,48.78,58.02,12.73,26.07-3.38,50.99-17.67,75.24-3.71,6.29-7.86,12.32-12.47,17.99-3.38,4.15-5.88,6.71-9.67,10.2-21.6,19.87-50.82,14.95-74.3.17-12.4-9.14-69.08-45.49-45.72-92.02.6-1.19,14.68-23.55,15.38-24.75,8.97,2.99,23.92,8.97,17.94,35.88-8.97,20.93,35.88,59.79,51.14,44.88,3.91-3.79,7.73-7.67,11.55-11.55,18.04-24.36,29.99-33.33-.46-64.73-14.61-14.66-29.2-29.32-43.79-43.99-1.36-1.37-2.63-2.82-4.18-4.49Z"/>
      </g>
      <path class="cls-1" d="m283.01,175.61v-.15s1.89,0,1.89,0v.15c.22,2.21,2.53,3.72,5.61,3.72s5.18-1.64,5.18-3.89v-.03c0-1.85-1.32-3.11-4.4-3.8l-2.05-.46c-4.02-.91-5.72-2.62-5.72-5.38h0c0-3.19,2.84-5.54,6.84-5.54s6.63,2.28,6.87,5.15v.18s-1.89,0-1.89,0v-.16c-.3-1.93-2.19-3.41-5.04-3.4-2.76,0-4.86,1.49-4.86,3.72h0c0,1.78,1.24,2.9,4.27,3.59l2.05.47c4.16.95,5.84,2.62,5.84,5.41h0c0,3.55-2.89,5.9-7.2,5.9s-7.11-2.28-7.4-5.48Z"/>
      <path class="cls-1" d="m301.73,159.78h1.83v8.57h.18c.79-1.82,2.4-2.87,4.73-2.87,3.33,0,5.23,2,5.23,5.48v9.71h-1.83v-9.26c0-2.84-1.3-4.3-3.89-4.3s-4.43,1.86-4.43,4.68v8.88h-1.83v-20.9Z"/>
      <path class="cls-1" d="m317.42,176.56v-.03c0-2.59,1.93-4.11,5.39-4.35l4.66-.3v-1.4c0-2.19-1.33-3.36-3.75-3.36-2.03,0-3.45.82-3.84,2.31v.03h-1.86v-.05c.4-2.39,2.66-3.91,5.76-3.91,3.5,0,5.54,1.83,5.54,4.98v10.21h-1.85v-2.57h-.16c-.89,1.78-2.68,2.81-4.89,2.81-2.88,0-5-1.71-5-4.37Zm5.34,2.76c2.68,0,4.7-1.83,4.7-4.21v-1.73l-4.41.3c-2.54.17-3.76,1.13-3.76,2.82v.03c0,1.71,1.46,2.79,3.47,2.79Z"/>
      <path class="cls-1" d="m333.93,165.73h1.83v2.46h.18c.58-1.71,2.04-2.71,4.07-2.71.54,0,1.04.06,1.4.14v1.81c-.54-.14-1.03-.19-1.59-.19-2.33,0-4.05,1.71-4.05,4.12v9.33h-1.83v-14.95Z"/>
      <path class="cls-1" d="m343.35,173.25v-.03c0-4.66,2.61-7.74,6.62-7.74s6.48,3,6.48,7.43v.78h-11.23c.05,3.5,1.97,5.6,4.94,5.6,2.18,0,3.68-1.03,4.16-2.19l.05-.1h1.85l-.04.11c-.58,2.03-2.76,3.83-6.06,3.83-4.19,0-6.77-2.98-6.77-7.67Zm1.89-1.07h9.35c-.21-3.32-2.05-5.07-4.62-5.07s-4.5,1.83-4.73,5.07Z"/>
      <path class="cls-1" d="m359.66,173.23v-.03c0-4.63,2.53-7.72,6.31-7.72,2.26,0,4.19,1.24,5.03,3.16h.16v-8.87h1.85v20.9h-1.85v-2.98h-.16c-.88,2.01-2.72,3.23-5.03,3.23-3.78,0-6.31-3.09-6.31-7.7Zm11.55-.01v-.03c0-3.68-1.9-6.07-4.84-6.07s-4.83,2.38-4.83,6.07v.03c0,3.71,1.87,6.08,4.83,6.08s4.84-2.39,4.84-6.08Z"/>
      <path class="cls-1" d="m384.67,176.56v-.03c0-2.59,1.93-4.11,5.39-4.35l4.66-.3v-1.4c0-2.19-1.33-3.36-3.75-3.36-2.03,0-3.45.82-3.84,2.31v.03h-1.86v-.05c.4-2.39,2.66-3.91,5.76-3.91,3.5,0,5.54,1.83,5.54,4.98v10.21h-1.85v-2.57h-.16c-.89,1.78-2.68,2.81-4.89,2.81-2.88,0-5-1.71-5-4.37Zm5.34,2.76c2.68,0,4.7-1.83,4.7-4.21v-1.73l-4.41.3c-2.54.17-3.76,1.13-3.76,2.82v.03c0,1.71,1.46,2.79,3.47,2.79Z"/>
      <path class="cls-1" d="m401.18,165.73h1.83v2.62h.18c.79-1.8,2.4-2.87,4.73-2.87,3.33,0,5.23,2,5.23,5.48v9.71h-1.83v-9.26c0-2.84-1.29-4.3-3.89-4.3s-4.43,1.86-4.43,4.68v8.88h-1.83v-14.95Z"/>
      <path class="cls-1" d="m417,173.23v-.03c0-4.63,2.53-7.72,6.31-7.72,2.26,0,4.19,1.24,5.03,3.16h.16v-8.87h1.85v20.9h-1.85v-2.98h-.16c-.88,2.01-2.72,3.23-5.03,3.23-3.78,0-6.31-3.09-6.31-7.7Zm11.55-.01v-.03c0-3.68-1.9-6.07-4.84-6.07s-4.83,2.38-4.83,6.07v.03c0,3.71,1.87,6.08,4.83,6.08s4.84-2.39,4.84-6.08Z"/>
      <path class="cls-1" d="m442.87,165.73h1.83v2.97h.18c.87-2,2.72-3.22,5.01-3.22,3.79,0,6.33,3.1,6.33,7.7v.03c0,4.63-2.54,7.72-6.33,7.72-2.26,0-4.19-1.24-5.01-3.16h-.18v7.87h-1.83v-19.9Zm11.48,7.48v-.03c0-3.69-1.87-6.07-4.83-6.07s-4.84,2.39-4.84,6.07v.03c0,3.69,1.9,6.08,4.84,6.08s4.83-2.37,4.83-6.08Z"/>
      <path class="cls-1" d="m460.16,165.73h1.83v2.46h.18c.58-1.71,2.04-2.71,4.07-2.71.54,0,1.04.06,1.4.14v1.81c-.54-.14-1.03-.19-1.59-.19-2.33,0-4.05,1.71-4.05,4.12v9.33h-1.83v-14.95Z"/>
      <path class="cls-1" d="m470.43,161.28c0-.75.61-1.35,1.36-1.35s1.35.6,1.35,1.35-.61,1.35-1.35,1.35-1.36-.6-1.36-1.35Zm.43,4.46h1.83v14.95h-1.83v-14.95Z"/>
      <path class="cls-1" d="m476.06,165.73h1.94l4.52,12.96h.16l4.51-12.96h1.96l-5.58,14.95h-1.94l-5.58-14.95Z"/>
      <path class="cls-1" d="m491.03,176.56v-.03c0-2.59,1.93-4.11,5.39-4.35l4.66-.3v-1.4c0-2.19-1.33-3.36-3.75-3.36-2.03,0-3.45.82-3.84,2.31v.03h-1.86v-.05c.4-2.39,2.66-3.91,5.76-3.91,3.5,0,5.54,1.83,5.54,4.98v10.21h-1.85v-2.57h-.16c-.89,1.78-2.68,2.81-4.89,2.81-2.88,0-5-1.71-5-4.37Zm5.34,2.76c2.68,0,4.7-1.83,4.7-4.21v-1.73l-4.41.3c-2.54.17-3.76,1.13-3.76,2.82v.03c0,1.71,1.46,2.79,3.47,2.79Z"/>
      <path class="cls-1" d="m508.44,176.96v-9.69h-2.4v-1.54h2.4v-3.89h1.9v3.89h3.41v1.54h-3.41v9.27c0,1.83.65,2.59,2.34,2.59.42,0,.69-.01,1.07-.06v1.58c-.42.07-.83.11-1.28.11-2.86,0-4.04-1.1-4.04-3.82Z"/>
      <path class="cls-1" d="m516.58,173.25v-.03c0-4.66,2.61-7.74,6.62-7.74s6.48,3,6.48,7.43v.78h-11.23c.05,3.5,1.97,5.6,4.94,5.6,2.18,0,3.68-1.03,4.16-2.19l.05-.1h1.85l-.04.11c-.58,2.03-2.76,3.83-6.06,3.83-4.19,0-6.77-2.98-6.77-7.67Zm1.89-1.07h9.35c-.21-3.32-2.05-5.07-4.62-5.07s-4.5,1.83-4.73,5.07Z"/>
      <path class="cls-1" d="m540.57,173.21v-.03c0-4.76,2.61-7.7,6.78-7.7s6.8,2.94,6.8,7.7v.03c0,4.76-2.62,7.72-6.8,7.72s-6.78-2.95-6.78-7.72Zm11.7,0v-.03c0-3.78-1.83-6.07-4.91-6.07s-4.91,2.29-4.91,6.07v.03c0,3.78,1.83,6.08,4.91,6.08s4.91-2.3,4.91-6.08Z"/>
      <path class="cls-1" d="m559.11,167.27h-2.49v-1.54h2.49v-1.92c0-2.78,1.41-4.18,4.02-4.18.54,0,1,.04,1.46.12v1.48c-.28-.04-.69-.07-1.13-.07-1.72,0-2.51.95-2.51,2.68v1.87h3.5v1.54h-3.5v13.41h-1.85v-13.41Z"/>
      <path class="cls-1" d="m569.08,167.27h-2.49v-1.54h2.49v-1.92c0-2.78,1.41-4.18,4.02-4.18.54,0,1,.04,1.46.12v1.48c-.28-.04-.69-.07-1.13-.07-1.72,0-2.51.95-2.51,2.68v1.87h3.5v1.54h-3.5v13.41h-1.85v-13.41Z"/>
      <path class="cls-1" d="m577.72,161.28c0-.75.61-1.35,1.36-1.35s1.35.6,1.35,1.35-.61,1.35-1.35,1.35-1.36-.6-1.36-1.35Zm.43,4.46h1.83v14.95h-1.83v-14.95Z"/>
      <path class="cls-1" d="m584.01,173.17v-.03c0-4.66,2.61-7.66,6.73-7.66,3.43,0,5.66,1.97,6.12,4.59v.05h-1.82s-.01-.03-.01-.03c-.44-1.72-2-2.99-4.29-2.99-2.97,0-4.86,2.35-4.86,6.02v.03c0,3.72,1.9,6.12,4.86,6.12,2.21,0,3.73-1.04,4.26-2.84l.03-.07h1.83s-.03.1-.03.1c-.58,2.64-2.66,4.45-6.08,4.45-4.12,0-6.74-3.02-6.74-7.76Z"/>
      <path class="cls-1" d="m599.93,173.25v-.03c0-4.66,2.61-7.74,6.62-7.74s6.48,3,6.48,7.43v.78h-11.23c.05,3.5,1.97,5.6,4.94,5.6,2.18,0,3.68-1.03,4.16-2.19l.05-.1h1.85l-.04.11c-.58,2.03-2.76,3.83-6.06,3.83-4.19,0-6.77-2.98-6.77-7.67Zm1.89-1.07h9.35c-.21-3.32-2.05-5.07-4.62-5.07s-4.5,1.83-4.73,5.07Z"/>
      <path class="cls-1" d="m616.19,176.93h1.89c.4,1.48,1.83,2.44,4,2.44s3.84-1.12,3.84-2.68v-.03c0-1.29-.93-2.05-3.11-2.57l-2.08-.5c-2.77-.65-4.06-1.81-4.06-3.9h0c0-2.43,2.37-4.22,5.38-4.22s5.15,1.51,5.49,3.87h-1.8c-.33-1.39-1.72-2.33-3.71-2.33s-3.5,1.1-3.5,2.58v.03c0,1.22.92,1.93,2.9,2.4l2.07.48c2.89.69,4.29,1.86,4.29,4.01v.03c0,2.57-2.51,4.37-5.77,4.37s-5.52-1.55-5.83-4Z"/>
      <path class="cls-1" d="m640.37,167.27h-2.49v-1.54h2.49v-1.92c0-2.78,1.41-4.18,4.02-4.18.54,0,1,.04,1.46.12v1.48c-.28-.04-.69-.07-1.13-.07-1.72,0-2.51.95-2.51,2.68v1.87h3.5v1.54h-3.5v13.41h-1.85v-13.41Z"/>
      <path class="cls-1" d="m647.91,173.21v-.03c0-4.76,2.61-7.7,6.78-7.7s6.8,2.94,6.8,7.7v.03c0,4.76-2.62,7.72-6.8,7.72s-6.78-2.95-6.78-7.72Zm11.7,0v-.03c0-3.78-1.83-6.07-4.91-6.07s-4.91,2.29-4.91,6.07v.03c0,3.78,1.83,6.08,4.91,6.08s4.91-2.3,4.91-6.08Z"/>
      <path class="cls-1" d="m665.45,165.73h1.83v2.46h.18c.58-1.71,2.04-2.71,4.07-2.71.54,0,1.04.06,1.4.14v1.81c-.54-.14-1.03-.19-1.59-.19-2.33,0-4.05,1.71-4.05,4.12v9.33h-1.83v-14.95Z"/>
      <path class="cls-1" d="m683.74,165.73h1.83v2.46h.18c.58-1.71,2.04-2.71,4.07-2.71.54,0,1.04.06,1.4.14v1.81c-.54-.14-1.03-.19-1.59-.19-2.33,0-4.05,1.71-4.05,4.12v9.33h-1.83v-14.95Z"/>
      <path class="cls-1" d="m693.15,173.25v-.03c0-4.66,2.61-7.74,6.62-7.74s6.48,3,6.48,7.43v.78h-11.23c.05,3.5,1.97,5.6,4.94,5.6,2.18,0,3.68-1.03,4.16-2.19l.05-.1h1.85l-.04.11c-.58,2.03-2.76,3.83-6.06,3.83-4.19,0-6.77-2.98-6.77-7.67Zm1.89-1.07h9.35c-.21-3.32-2.05-5.07-4.62-5.07s-4.5,1.83-4.73,5.07Z"/>
      <path class="cls-1" d="m710.21,165.73h1.83v2.62h.18c.79-1.8,2.4-2.87,4.73-2.87,3.33,0,5.23,2,5.23,5.48v9.71h-1.83v-9.26c0-2.84-1.29-4.3-3.89-4.3s-4.43,1.86-4.43,4.68v8.88h-1.83v-14.95Z"/>
      <path class="cls-1" d="m727.68,176.96v-9.69h-2.4v-1.54h2.4v-3.89h1.9v3.89h3.41v1.54h-3.41v9.27c0,1.83.65,2.59,2.34,2.59.42,0,.69-.01,1.07-.06v1.58c-.42.07-.83.11-1.28.11-2.86,0-4.04-1.1-4.04-3.82Z"/>
      <g>
        <path class="cls-1" d="m287.25,127.94c.5,4.61,4.87,7.64,10.95,7.64,5.76,0,9.95-3.04,9.95-7.23,0-3.6-2.51-5.82-8.24-7.29l-5.46-1.42c-7.85-2-11.33-5.46-11.33-11.25,0-7.08,6.2-12.04,15.05-12.04s14.61,5.02,14.85,12.16h-5.31c-.47-4.57-4.16-7.38-9.71-7.38s-9.36,2.86-9.36,7.03c0,3.22,2.36,5.14,8.15,6.64l4.46,1.18c8.82,2.22,12.4,5.61,12.4,11.72,0,7.79-6.14,12.66-15.94,12.66-9.03,0-15.29-4.9-15.79-12.43h5.34Z"/>
        <path class="cls-1" d="m335.01,97.06c8,0,13.64,5.61,13.64,13.67s-5.7,13.72-13.7,13.72h-9.83v15.2h-5.31v-42.59h15.2Zm-9.89,22.67h8.5c6.08,0,9.56-3.33,9.56-9s-3.45-8.95-9.56-8.95h-8.5v17.94Z"/>
        <path class="cls-1" d="m374.86,127.47h-16.94l-4.28,12.19h-5.58l15.7-42.59h5.26l15.7,42.59h-5.58l-4.28-12.19Zm-15.38-4.52h13.81l-6.82-19.42h-.18l-6.82,19.42Z"/>
        <path class="cls-1" d="m386.72,118.35c0-13.37,7.53-21.99,19.18-21.99,9.27,0,16.32,5.64,17.68,14.14h-5.37c-1.36-5.58-6.23-9.24-12.31-9.24-8.32,0-13.73,6.73-13.73,17.09s5.34,17.12,13.76,17.12c6.26,0,10.74-3.01,12.28-8.21h5.37c-1.95,8.41-8.26,13.1-17.68,13.1-11.75,0-19.18-8.53-19.18-22.02Z"/>
        <path class="cls-1" d="m456.2,139.66h-26.39v-42.59h26.39v4.78h-21.07v13.67h19.98v4.72h-19.98v14.64h21.07v4.78Z"/>
      </g>
      <g>
        <path class="cls-1" d="m507.98,139.66h-27.54v-42.59h8.91v35.21h18.62v7.38Z"/>
        <path class="cls-1" d="m541.46,139.66h-28.22v-42.59h28.22v7.35h-19.3v10.27h18.21v6.84h-18.21v10.75h19.3v7.38Z"/>
        <path class="cls-1" d="m547.86,139.66v-42.59h8.91v42.59h-8.91Z"/>
        <path class="cls-1" d="m563.85,139.66v-42.59h18.54c8,0,13.02,4.11,13.02,10.63,0,4.67-3.48,8.56-8,9.24v.23c5.78.44,10.03,4.66,10.03,10.3,0,7.49-5.64,12.19-14.73,12.19h-18.86Zm8.91-24.88h6.41c4.75,0,7.47-2.1,7.47-5.7s-2.39-5.37-6.55-5.37h-7.32v11.07Zm7.67,18.24c5.14,0,7.91-2.19,7.91-6.26s-2.86-6.11-8.12-6.11h-7.47v12.37h7.67Z"/>
        <path class="cls-1" d="m602.49,139.66v-42.59h7.44l19.89,27.75h.23v-27.75h8.53v42.59h-7.38l-19.92-27.89h-.27v27.89h-8.53Z"/>
        <path class="cls-1" d="m645.63,139.66v-42.59h8.91v42.59h-8.91Z"/>
        <path class="cls-1" d="m671.8,139.66v-35.24h-12.31v-7.35h33.56v7.35h-12.34v35.24h-8.91Z"/>
        <path class="cls-1" d="m697.04,133.85l21.64-29.19v-.23h-21.14v-7.35h31.79v5.79l-21.55,29.22v.21h22.14v7.38h-32.88v-5.81Z"/>
      </g>
      <g>
        <path class="cls-2" d="m295.39,73.2h-14.06L262.5,2.04h15.44l11.19,51.53h.39l13.31-51.53h12.57l13.31,51.53h.4l11.24-51.53h15.43l-18.89,71.16h-14.05l-13.51-48.62h-.44l-13.51,48.62Z"/>
        <path class="cls-2" d="m427.78,37.64c0,22.63-13.27,36.79-34.32,36.79s-34.32-14.15-34.32-36.79S372.35.81,393.46.81s34.32,14.15,34.32,36.84Zm-53.46,0c0,14.89,7.45,24.31,19.13,24.31s19.08-9.42,19.08-24.31-7.45-24.41-19.08-24.41-19.13,9.47-19.13,24.41Z"/>
        <path class="cls-2" d="m452.27,73.2h-14.89V2.04h29.15c16.37,0,25.74,8.63,25.74,22.68,0,9.12-4.73,17.01-12.92,20.22l14.99,28.26h-16.86l-13.27-26.04h-11.93v26.04Zm0-36.84h12.82c7.5,0,11.88-4.29,11.88-11.34s-4.64-11.34-12.03-11.34h-12.67v22.69Z"/>
        <path class="cls-2" d="m502.05,73.2V2.04h14.89v32.45h.44l26.73-32.45h16.57l-26.33,31.56,28.16,39.6h-17.8l-21.11-29.74-6.66,7.99v21.75h-14.89Z"/>
        <path class="cls-2" d="m568.8,73.2V2.04h14.89v71.16h-14.89Z"/>
        <path class="cls-2" d="m595.54,73.2V2.04h12.43l33.24,46.35h.39V2.04h14.25v71.16h-12.33l-33.29-46.6h-.44v46.6h-14.25Z"/>
        <path class="cls-2" d="m699.76,74.43c-21.25,0-34.27-13.91-34.27-37.03S678.51.81,699.42.81c16.62,0,29.14,9.81,31.27,24.21h-14.94c-2.17-7.45-8.24-11.88-16.27-11.88-11.74,0-18.79,8.93-18.79,24.07s7.5,24.85,19.33,24.85c9.71,0,16.47-5.97,16.77-14.8l.05-1.13h-15.48v-10.85h29.98v8.04c0,19.38-11.74,31.12-31.56,31.12Z"/>
      </g>
    </g>
  </g>
</svg>