<svg width="148" height="142" viewBox="0 0 148 142" fill="none" xmlns="http://www.w3.org/2000/svg">
<path d="M20.74 5.49005C20.59 4.47005 20.33 2.15005 20.56 1.19005C20.7467 0.443384 20.8867 0.453383 20.98 1.22005C21.1533 2.56005 21.1667 3.98339 21.02 5.49005C20.9467 6.24339 20.8533 6.24339 20.74 5.49005Z" fill="#B2B2B2"/>
<path d="M7.63411 6.41391L7.57705 6.46999C7.47463 6.57063 7.47319 6.73525 7.57384 6.83767L15.5782 14.983C15.6789 15.0854 15.8435 15.0868 15.9459 14.9862L16.003 14.9301C16.1054 14.8295 16.1068 14.6649 16.0062 14.5624L8.00179 6.41712C7.90114 6.3147 7.73653 6.31327 7.63411 6.41391Z" fill="#B2B2B2"/>
<path d="M89.22 27.92C86.2933 25.1133 85.2666 24.8366 86.14 27.09C84.3733 27.61 83.16 27.8733 82.5 27.88C70.74 27.9866 58.7833 27.9833 46.63 27.87C42.12 27.82 36.4 25.31 37.85 20C37.9433 19.6533 37.9333 19.31 37.82 18.97C36.16 13.86 41.66 10.38 46 10.4C56.1666 10.4533 66.3333 10.4733 76.5 10.46C80.18 10.46 83.8466 10.4533 87.5 10.44C97.6 10.42 107.85 10.4033 118.25 10.39C123.337 10.3766 126.633 12.4833 128.14 16.71C128.827 18.63 128.847 20.4533 128.2 22.18C126.52 26.72 121.82 28.13 117.25 28.06C107.79 27.8933 98.4466 27.8466 89.22 27.92ZM64.0401 19.1909C64.0403 19.141 64.0308 19.0915 64.0119 19.0453C63.9931 18.9991 63.9653 18.957 63.9302 18.9216C63.8951 18.8861 63.8533 18.8579 63.8073 18.8385C63.7613 18.8192 63.712 18.8091 63.6621 18.8089L52.6222 18.7511C52.5723 18.7508 52.5228 18.7604 52.4766 18.7792C52.4304 18.7981 52.3884 18.8258 52.3529 18.8609C52.3174 18.896 52.2892 18.9378 52.2699 18.9838C52.2505 19.0298 52.2404 19.0792 52.2402 19.1291L52.2399 19.1891C52.2396 19.239 52.2492 19.2884 52.268 19.3346C52.2869 19.3808 52.3147 19.4229 52.3498 19.4583C52.3849 19.4938 52.4266 19.522 52.4726 19.5414C52.5186 19.5607 52.568 19.5708 52.6179 19.5711L63.6578 19.6289C63.7077 19.6291 63.7571 19.6196 63.8033 19.6007C63.8496 19.5818 63.8916 19.5541 63.9271 19.519C63.9625 19.4839 63.9907 19.4421 64.0101 19.3961C64.0294 19.3501 64.0395 19.3008 64.0398 19.2509L64.0401 19.1909ZM72.11 19.1445C72.1099 19.0788 72.028 19.0139 71.8691 18.9535C71.7102 18.8931 71.4774 18.8384 71.1838 18.7925C70.8903 18.7466 70.5419 18.7104 70.1584 18.6859C69.775 18.6614 69.3641 18.6492 68.9491 18.65C68.111 18.6514 67.3074 18.7055 66.7149 18.8003C66.1225 18.8951 65.7898 19.0228 65.79 19.1555C65.7901 19.2211 65.8719 19.286 66.0308 19.3464C66.1897 19.4068 66.4226 19.4615 66.7161 19.5074C67.0096 19.5533 67.3581 19.5895 67.7415 19.614C68.1249 19.6385 68.5359 19.6507 68.9509 19.65C69.7889 19.6485 70.5926 19.5944 71.185 19.4996C71.7775 19.4048 72.1102 19.2771 72.11 19.1445ZM38.16 19.22L38.19 19.48C38.2033 19.6133 38.2766 19.67 38.41 19.65C39.61 19.4966 40.8866 19.4266 42.24 19.44C42.34 19.4466 42.3966 19.4 42.41 19.3V19.29C42.4366 19.1166 42.3666 19.0166 42.2 18.99C40.8866 18.79 39.6266 18.7566 38.42 18.89C38.22 18.91 38.1333 19.02 38.16 19.22ZM49.8481 19.2687C49.8503 19.2122 49.786 19.1538 49.659 19.0967C49.532 19.0396 49.3446 18.985 49.1077 18.9359C48.8707 18.8868 48.5888 18.8443 48.2781 18.8107C47.9673 18.7772 47.6338 18.7532 47.2965 18.7403C46.6154 18.7141 45.9605 18.7343 45.4758 18.7963C44.9911 18.8584 44.7163 18.9573 44.7119 19.0713C44.7097 19.1277 44.7739 19.1861 44.9009 19.2432C45.028 19.3003 45.2153 19.3549 45.4522 19.404C45.6892 19.4531 45.9711 19.4956 46.2819 19.5292C46.5926 19.5628 46.9262 19.5867 47.2635 19.5997C47.9445 19.6258 48.5995 19.6056 49.0842 19.5436C49.5689 19.4815 49.8436 19.3826 49.8481 19.2687ZM78.2441 19.6521C78.2532 19.591 78.2005 19.5214 78.089 19.4473C77.9776 19.3732 77.8095 19.296 77.5945 19.2201C77.3795 19.1443 77.1217 19.0712 76.8359 19.0051C76.5501 18.939 76.2418 18.8812 75.9287 18.835C75.6156 18.7887 75.3038 18.755 75.0111 18.7356C74.7184 18.7163 74.4505 18.7117 74.2227 18.7222C73.995 18.7327 73.8118 18.758 73.6836 18.7967C73.5555 18.8354 73.4849 18.8868 73.4759 18.9479C73.4668 19.0089 73.5195 19.0785 73.6309 19.1526C73.7424 19.2267 73.9104 19.3039 74.1254 19.3798C74.3404 19.4557 74.5982 19.5287 74.884 19.5948C75.1699 19.6609 75.4781 19.7187 75.7913 19.765C76.1044 19.8112 76.4162 19.8449 76.7089 19.8643C77.0016 19.8836 77.2695 19.8882 77.4972 19.8777C77.725 19.8672 77.9082 19.8419 78.0363 19.8032C78.1645 19.7645 78.2351 19.7131 78.2441 19.6521ZM83.7932 23.7194C83.8451 23.6731 83.8551 23.5807 83.8226 23.4475C83.79 23.3143 83.7156 23.1429 83.6034 22.943C83.4913 22.7432 83.3437 22.5188 83.1691 22.2828C82.9945 22.0468 82.7962 21.8037 82.5857 21.5674C82.1605 21.0901 81.711 20.6696 81.3361 20.3983C80.9613 20.1269 80.6917 20.0271 80.5868 20.1206C80.5348 20.1669 80.5248 20.2592 80.5574 20.3924C80.5899 20.5257 80.6644 20.6971 80.7765 20.8969C80.8886 21.0967 81.0362 21.3211 81.2109 21.5571C81.3855 21.7931 81.5837 22.0362 81.7943 22.2726C82.2195 22.7498 82.6689 23.1703 83.0438 23.4416C83.4187 23.713 83.6882 23.8129 83.7932 23.7194Z" fill="#EDEDED"/>
<path d="M63.662 18.8089L52.6222 18.7511C52.4123 18.75 52.2413 18.9193 52.2402 19.1291L52.2399 19.1891C52.2388 19.399 52.408 19.57 52.6179 19.5711L63.6577 19.6289C63.8676 19.63 64.0386 19.4608 64.0397 19.2509L64.04 19.1909C64.0411 18.9811 63.8719 18.81 63.662 18.8089Z" fill="#B2B2B2"/>
<path d="M68.9509 19.65C70.6961 19.647 72.1105 19.4206 72.11 19.1445C72.1096 18.8683 70.6944 18.647 68.9492 18.65C67.204 18.653 65.7896 18.8794 65.7901 19.1555C65.7905 19.4317 67.2057 19.653 68.9509 19.65Z" fill="#B2B2B2"/>
<path d="M33.0776 19.6796C34.3304 19.6337 35.3382 19.3817 35.3285 19.1168C35.3188 18.8519 34.2952 18.6743 33.0424 18.7203C31.7896 18.7662 30.7818 19.0182 30.7915 19.2831C30.8012 19.5481 31.8247 19.7256 33.0776 19.6796Z" fill="#B2B2B2"/>
<path d="M38.42 18.8901C39.6266 18.7567 40.8866 18.7901 42.2 18.9901C42.3666 19.0167 42.4366 19.1167 42.41 19.2901V19.3001C42.3966 19.4001 42.34 19.4467 42.24 19.4401C40.8866 19.4267 39.61 19.4967 38.41 19.6501C38.2766 19.6701 38.2033 19.6134 38.19 19.4801L38.16 19.2201C38.1333 19.0201 38.22 18.9101 38.42 18.8901Z" fill="#B2B2B2"/>
<path d="M47.2635 19.5996C48.6818 19.6541 49.839 19.5059 49.8481 19.2686C49.8572 19.0313 48.7148 18.7947 47.2965 18.7403C45.8782 18.6858 44.721 18.834 44.7119 19.0713C44.7028 19.3086 45.8452 19.5451 47.2635 19.5996Z" fill="#B2B2B2"/>
<path d="M75.7914 19.765C77.1081 19.9594 78.2063 19.9089 78.2442 19.6521C78.2821 19.3953 77.2454 19.0295 75.9287 18.8351C74.612 18.6407 73.5138 18.6912 73.4759 18.948C73.438 19.2048 74.4747 19.5706 75.7914 19.765Z" fill="#B2B2B2"/>
<path d="M26.1521 20.2057C27.1943 19.8077 27.9801 19.3303 27.9072 19.1394C27.8343 18.9485 26.9303 19.1164 25.8881 19.5144C24.8459 19.9124 24.0601 20.3897 24.133 20.5806C24.2059 20.7715 25.1098 20.6037 26.1521 20.2057Z" fill="#B2B2B2"/>
<path d="M4.72837 19.9C6.05934 19.9093 7.13906 19.8094 7.13998 19.6768C7.14091 19.5443 6.06269 19.4293 4.73172 19.42C3.40074 19.4107 2.32103 19.5106 2.3201 19.6432C2.31918 19.7757 3.39739 19.8907 4.72837 19.9Z" fill="#B2B2B2"/>
<path d="M81.7943 22.2726C82.6797 23.2664 83.5747 23.9142 83.7932 23.7194C84.0118 23.5247 83.4712 22.5612 82.5857 21.5675C81.7003 20.5737 80.8054 19.9259 80.5868 20.1206C80.3683 20.3154 80.9089 21.2788 81.7943 22.2726Z" fill="#B2B2B2"/>
<path d="M20.9132 24.6926C20.5076 25.6123 20.3385 26.4283 20.5356 26.5152C20.7327 26.6022 21.2212 25.9271 21.6269 25.0074C22.0325 24.0877 22.2016 23.2717 22.0045 23.1848C21.8074 23.0979 21.3188 23.7729 20.9132 24.6926Z" fill="#B2B2B2"/>
<path d="M89.2199 27.92C88.7933 28.78 87.7666 28.5034 86.1399 27.09C85.2666 24.8367 86.2933 25.1134 89.2199 27.92Z" fill="#B2B2B2"/>
<path d="M91.3799 32.22C92.0066 33.0067 92.6566 33.48 93.3299 33.64C93.7033 33.7267 93.9133 33.5767 93.9599 33.19C93.9866 32.93 93.9199 32.64 93.7599 32.32C96.7933 32.4467 99.7899 32.5267 102.75 32.56C112.83 32.6533 122.897 32.6733 132.95 32.62C138.377 32.5867 142.67 35.2233 145.83 40.53C148.67 45.29 148.7 50.34 145.92 55.68C143.47 60.4 138.53 63.04 133.05 63.9C127.35 64.79 123.22 68.97 122.6 74.7C121.77 82.37 125.68 87.49 132.79 89.19C138.7 90.6 144.43 93.77 146.47 99.64C148.44 105.33 148.74 112.32 144.43 117.12C140.177 121.867 134.777 124.167 128.23 124.02C127.843 124.007 127.39 124.277 126.87 124.83L111.3 106.27C111.083 106.008 110.775 105.838 110.437 105.793C110.1 105.749 109.758 105.833 109.48 106.03L108.03 107.05C107.85 107.174 107.632 107.229 107.416 107.203C107.2 107.177 107.002 107.073 106.86 106.91L103.46 103.03C103.259 102.803 103.15 102.508 103.154 102.204C103.158 101.899 103.274 101.606 103.48 101.38C109.153 95.2133 112.363 88.2167 113.11 80.39C113.77 73.4633 112.647 67.0833 109.74 61.25C106.48 54.71 101.897 49.7067 95.9899 46.24C95.5499 45.9867 95.2933 45.6067 95.2199 45.1L95.0699 44.07C94.9966 43.5967 94.7966 43.5333 94.4699 43.88L94.0299 44.34C93.7433 44.6467 93.4066 44.7167 93.0199 44.55C84.8299 41 76.07 40.14 67.7299 42.64C61.3233 44.56 56.1399 47.6833 52.1799 52.01C40.4699 64.82 38.9999 82.61 48.7899 97.01C50.7299 99.87 53.2599 102.07 55.5699 104.59C56.9099 106.07 58.5699 106.34 60.1799 107.38C61.3333 108.12 62.5699 108.753 63.8899 109.28C75.5766 113.953 86.8499 112.98 97.7099 106.36C98.0076 106.178 98.3617 106.113 98.7048 106.175C99.0478 106.238 99.3557 106.425 99.5699 106.7L102.6 110.55C102.853 110.87 102.823 111.163 102.51 111.43C102.017 111.85 101.587 112.357 101.22 112.95C101 113.31 100.898 113.73 100.927 114.15C100.955 114.571 101.114 114.973 101.38 115.3L106.33 121.37C105.69 122.85 104.58 123.59 103 123.59C74.5799 123.597 46.1633 123.627 17.7499 123.68C8.22994 123.7 -0.410056 116.42 0.0799444 106.54C0.539944 97.14 5.16661 91.53 13.9599 89.71C14.7066 89.5567 15.7333 89.5533 17.0399 89.7C18.6666 89.8867 19.7066 89.6533 20.1599 89C20.0199 89.52 20.0766 90.09 20.3299 90.71C20.4833 91.0967 20.6966 91.13 20.9699 90.81C21.2033 90.5367 21.3166 90.0667 21.3099 89.4C23.9566 88.5267 26.2366 87.1733 28.1499 85.34C30.2033 83.3733 31.3733 81.13 31.6599 78.61C32.1599 74.19 30.8466 70.3733 27.7199 67.16C25.9899 65.38 23.7799 64.56 21.8699 63.17C21.0566 62.5767 20.0366 62.4367 18.8099 62.75C16.3099 63.39 13.6099 62.81 11.4899 61.37C4.23995 56.42 1.46994 45.85 7.27994 38.72C9.99328 35.3933 13.2066 33.4133 16.9199 32.78C17.6199 32.6667 18.3133 32.77 18.9999 33.09C19.1559 33.161 19.3288 33.1859 19.4984 33.162C19.6681 33.1381 19.8274 33.0663 19.9576 32.955C20.0878 32.8436 20.1835 32.6975 20.2336 32.5336C20.2836 32.3698 20.2858 32.1951 20.2399 32.03C20.0666 31.4167 20.1066 30.83 20.3599 30.27C20.5733 29.7967 20.7699 29.8033 20.9499 30.29C21.1833 30.9233 21.2266 31.63 21.0799 32.41C21.0133 32.7567 21.1466 32.99 21.4799 33.11C21.8933 33.27 22.2766 33.23 22.6299 32.99C22.9899 32.75 23.3833 32.6333 23.8099 32.64C47.3366 32.7933 67.9699 32.83 85.7099 32.75C86.2899 32.75 86.8399 32.65 87.3599 32.45C87.6666 32.33 87.9766 32.32 88.2899 32.42C88.8166 32.5867 89.3233 32.7733 89.8099 32.98C90.7233 33.36 91.2466 33.1067 91.3799 32.22ZM94.5499 40.43L94.91 40.38C95.0166 40.3667 95.0733 40.3067 95.0799 40.2C95.1666 39.2467 95.1599 38.36 95.0599 37.54C94.8266 35.66 94.5299 35.6533 94.1699 37.52C94.0433 38.1667 94.0633 39.0567 94.2299 40.19C94.2566 40.37 94.3633 40.45 94.5499 40.43ZM20.3299 40.5C20.5033 41.2733 20.6599 41.27 20.7999 40.49C20.9799 39.49 20.9666 38.51 20.7599 37.55C20.6399 37.01 20.5099 37.0067 20.3699 37.54C20.1166 38.5133 20.1033 39.5 20.3299 40.5ZM20.5373 48.4087C20.5898 48.4106 20.6437 48.3586 20.6959 48.2559C20.748 48.1531 20.7974 48.0016 20.8413 47.8098C20.8852 47.6181 20.9226 47.39 20.9515 47.1385C20.9804 46.887 21.0002 46.617 21.0097 46.344C21.0193 46.071 21.0184 45.8003 21.0071 45.5474C20.9958 45.2945 20.9744 45.0643 20.944 44.8699C20.9136 44.6756 20.8749 44.521 20.83 44.4148C20.7852 44.3087 20.735 44.2531 20.6825 44.2513C20.63 44.2494 20.5762 44.3013 20.524 44.4041C20.4719 44.5068 20.4225 44.6584 20.3786 44.8501C20.3347 45.0419 20.2973 45.27 20.2684 45.5215C20.2395 45.773 20.2197 46.043 20.2101 46.316C20.2006 46.589 20.2015 46.8597 20.2128 47.1126C20.2241 47.3655 20.2455 47.5957 20.2759 47.79C20.3063 47.9844 20.345 48.139 20.3899 48.2452C20.4347 48.3513 20.4848 48.4069 20.5373 48.4087ZM20.5902 55.5689C20.6506 55.5708 20.7122 55.5153 20.7715 55.4055C20.8308 55.2957 20.8866 55.1339 20.9358 54.9292C20.9849 54.7245 21.0265 54.4809 21.0581 54.2124C21.0896 53.944 21.1106 53.6558 21.1197 53.3644C21.1289 53.073 21.1261 52.7841 21.1114 52.5141C21.0968 52.2442 21.0706 51.9985 21.0344 51.7911C20.9981 51.5837 20.9526 51.4187 20.9003 51.3054C20.848 51.1922 20.79 51.133 20.7296 51.1311C20.6693 51.1292 20.6077 51.1847 20.5484 51.2945C20.4891 51.4042 20.4333 51.5661 20.3841 51.7708C20.3349 51.9755 20.2934 52.2191 20.2618 52.4875C20.2303 52.756 20.2093 53.0442 20.2001 53.3356C20.191 53.627 20.1938 53.9159 20.2085 54.1859C20.2231 54.4558 20.2493 54.7015 20.2855 54.9089C20.3217 55.1163 20.3673 55.2813 20.4196 55.3945C20.4719 55.5078 20.5299 55.567 20.5902 55.5689ZM20.8119 62.1461C20.9257 62.1387 21.022 61.9329 21.0796 61.574C21.1372 61.2151 21.1514 60.7325 21.119 60.2323C21.103 59.9846 21.0761 59.74 21.0397 59.5126C21.0033 59.2851 20.9583 59.0792 20.9071 58.9067C20.8559 58.7341 20.7996 58.5982 20.7414 58.5068C20.6833 58.4154 20.6243 58.3702 20.5679 58.3739C20.4541 58.3813 20.3579 58.5871 20.3003 58.946C20.2427 59.3049 20.2285 59.7875 20.2608 60.2877C20.2769 60.5354 20.3038 60.7799 20.3402 61.0074C20.3765 61.2348 20.4216 61.4407 20.4728 61.6133C20.524 61.7859 20.5802 61.9218 20.6384 62.0132C20.6966 62.1046 20.7556 62.1498 20.8119 62.1461ZM20.7999 94.19H20.4999C20.4433 94.1899 20.3888 94.2117 20.3478 94.2509C20.3068 94.29 20.2825 94.3434 20.2799 94.4L20.2499 98.12C20.2499 98.1899 20.277 98.2571 20.3255 98.3075C20.3739 98.3578 20.4401 98.3874 20.5099 98.39L20.7999 98.41C20.9266 98.4233 20.9933 98.3667 20.9999 98.24L21.1199 94.51C21.1266 94.2967 21.0199 94.19 20.7999 94.19ZM24.2584 104.057C24.3433 103.97 24.2847 103.75 24.0956 103.447C23.9065 103.143 23.6024 102.781 23.25 102.44C22.8977 102.098 22.5261 101.806 22.2169 101.626C21.9078 101.447 21.6864 101.395 21.6014 101.483C21.5166 101.57 21.5751 101.79 21.7643 102.093C21.9534 102.397 22.2575 102.759 22.6098 103.1C22.9622 103.442 23.3338 103.734 23.643 103.914C23.9521 104.093 24.1735 104.145 24.2584 104.057ZM28.4999 104.97C28.2866 104.85 28.0633 104.85 27.8299 104.97C27.4633 105.157 27.4699 105.333 27.8499 105.5C28.9433 105.967 30.0399 105.963 31.1399 105.49C31.5999 105.29 31.5799 105.163 31.0799 105.11C30.4266 105.043 29.7633 105.04 29.0899 105.1C28.8766 105.12 28.6799 105.077 28.4999 104.97ZM45.1199 105.7C46.2266 105.347 46.1999 105.123 45.0399 105.03C44.1933 104.963 43.3433 104.96 42.4899 105.02C42.2033 105.04 42.0333 105.193 41.9799 105.48C41.9333 105.747 42.0466 105.9 42.3199 105.94C43.2866 106.06 44.2199 105.98 45.1199 105.7ZM52.5888 105.356C52.5866 105.293 52.5369 105.232 52.4425 105.177C52.348 105.122 52.2107 105.074 52.0384 105.035C51.8661 104.997 51.6621 104.969 51.4382 104.952C51.2142 104.936 50.9746 104.932 50.7331 104.94C50.2455 104.957 49.7795 105.024 49.4378 105.126C49.0961 105.228 48.9066 105.357 48.911 105.484C48.9132 105.547 48.963 105.608 49.0574 105.663C49.1519 105.718 49.2892 105.766 49.4615 105.805C49.6338 105.843 49.8378 105.871 50.0617 105.888C50.2857 105.904 50.5252 105.908 50.7667 105.9C51.2544 105.883 51.7204 105.816 52.0621 105.714C52.4038 105.612 52.5933 105.483 52.5888 105.356ZM38.669 105.431C38.6675 105.379 38.6148 105.328 38.5139 105.283C38.413 105.237 38.2659 105.197 38.081 105.166C37.8961 105.134 37.6771 105.111 37.4363 105.098C37.1956 105.085 36.938 105.082 36.678 105.09C36.1532 105.106 35.6511 105.163 35.2822 105.249C34.9133 105.335 34.7078 105.443 34.7108 105.549C34.7124 105.601 34.7651 105.652 34.866 105.697C34.9669 105.743 35.114 105.783 35.2989 105.814C35.4838 105.846 35.7028 105.869 35.9435 105.882C36.1843 105.895 36.4419 105.898 36.7018 105.89C37.2267 105.874 37.7288 105.817 38.0977 105.731C38.4666 105.645 38.6721 105.537 38.669 105.431Z" fill="#EDEDED"/>
<path d="M93.76 32.3199C93.92 32.6399 93.9867 32.9299 93.96 33.1899C93.9134 33.5766 93.7034 33.7266 93.33 33.6399C92.6567 33.4799 92.0067 33.0066 91.38 32.2199C90.7067 31.5666 90.4767 30.9833 90.69 30.4699C90.83 30.1233 91.0667 30.0333 91.4 30.1999C92.3 30.6533 93.0867 31.3599 93.76 32.3199Z" fill="#B2B2B2"/>
<path d="M94.2299 40.19C94.0633 39.0567 94.0433 38.1667 94.1699 37.52C94.5299 35.6533 94.8266 35.66 95.0599 37.54C95.1599 38.36 95.1666 39.2467 95.0799 40.2C95.0733 40.3067 95.0166 40.3667 94.9099 40.38L94.5499 40.43C94.3633 40.45 94.2566 40.37 94.2299 40.19Z" fill="#B2B2B2"/>
<path d="M20.33 40.5C20.1033 39.5 20.1167 38.5133 20.37 37.54C20.51 37.0066 20.64 37.01 20.76 37.55C20.9667 38.51 20.98 39.49 20.8 40.49C20.66 41.27 20.5033 41.2733 20.33 40.5Z" fill="#B2B2B2"/>
<path d="M126.87 124.83C128.077 126.07 129.233 127.357 130.34 128.69C132.23 130.96 134.25 132.78 133.06 135.81C132.593 136.997 131.687 138.133 130.34 139.22C127.68 141.38 124.47 142.92 121.8 139.7C116.753 133.62 111.597 127.51 106.33 121.37L101.38 115.3C101.114 114.973 100.955 114.571 100.927 114.15C100.898 113.73 101 113.31 101.22 112.95C101.587 112.357 102.017 111.85 102.51 111.43C102.823 111.163 102.853 110.87 102.6 110.55L99.57 106.7C99.3558 106.425 99.0479 106.238 98.7048 106.175C98.3618 106.113 98.0077 106.178 97.71 106.36C86.85 112.98 75.5767 113.953 63.89 109.28C62.57 108.753 61.3333 108.12 60.18 107.38C58.57 106.34 56.91 106.07 55.57 104.59C53.26 102.07 50.73 99.87 48.79 97.01C39 82.61 40.47 64.82 52.18 52.01C56.14 47.6834 61.3233 44.56 67.73 42.64C76.07 40.14 84.83 41 93.02 44.55C93.4067 44.7167 93.7433 44.6467 94.03 44.34L94.47 43.88C94.7967 43.5334 94.9967 43.5967 95.07 44.07L95.22 45.1C95.2933 45.6067 95.55 45.9867 95.99 46.24C101.897 49.7067 106.48 54.71 109.74 61.25C112.647 67.0834 113.77 73.4634 113.11 80.39C112.363 88.2167 109.153 95.2134 103.48 101.38C103.274 101.606 103.158 101.899 103.154 102.204C103.15 102.508 103.259 102.803 103.46 103.03L106.86 106.91C107.002 107.073 107.2 107.177 107.416 107.203C107.632 107.229 107.85 107.174 108.03 107.05L109.48 106.03C109.758 105.833 110.1 105.749 110.437 105.793C110.775 105.838 111.083 106.008 111.3 106.27L126.87 124.83ZM112.31 76.75C112.31 72.2221 111.418 67.7384 109.685 63.5551C107.953 59.3718 105.413 55.5708 102.211 52.369C99.0093 49.1672 95.2082 46.6274 91.0249 44.8947C86.8416 43.1619 82.358 42.27 77.83 42.27C68.6853 42.27 59.9152 45.9027 53.449 52.369C46.9827 58.8352 43.35 67.6054 43.35 76.75C43.35 85.8947 46.9827 94.6648 53.449 101.131C59.9152 107.597 68.6853 111.23 77.83 111.23C82.358 111.23 86.8416 110.338 91.0249 108.605C95.2082 106.873 99.0093 104.333 102.211 101.131C105.413 97.9293 107.953 94.1283 109.685 89.945C111.418 85.7617 112.31 81.278 112.31 76.75ZM110.992 109.776C110.812 109.567 110.557 109.437 110.282 109.416C110.007 109.395 109.735 109.484 109.526 109.664L109.495 109.69C109.391 109.778 109.306 109.887 109.244 110.009C109.183 110.13 109.145 110.263 109.135 110.399C109.124 110.536 109.141 110.672 109.183 110.802C109.226 110.932 109.293 111.052 109.382 111.156L126.068 130.624C126.248 130.833 126.503 130.963 126.778 130.984C127.053 131.005 127.325 130.916 127.535 130.737L127.565 130.711C127.669 130.622 127.754 130.513 127.816 130.391C127.877 130.27 127.915 130.137 127.925 130.001C127.936 129.865 127.919 129.728 127.877 129.598C127.834 129.468 127.767 129.348 127.678 129.244L110.992 109.776Z" fill="#B2B2B2"/>
<path d="M112.31 76.75C112.31 81.278 111.418 85.7616 109.685 89.9449C107.953 94.1283 105.413 97.9293 102.211 101.131C99.0093 104.333 95.2082 106.873 91.0249 108.605C86.8416 110.338 82.358 111.23 77.83 111.23C68.6853 111.23 59.9152 107.597 53.4489 101.131C46.9827 94.6648 43.35 85.8947 43.35 76.75C43.35 67.6054 46.9827 58.8352 53.4489 52.369C59.9152 45.9027 68.6853 42.27 77.83 42.27C82.358 42.27 86.8416 43.1619 91.0249 44.8947C95.2082 46.6274 99.0093 49.1672 102.211 52.369C105.413 55.5707 107.953 59.3718 109.685 63.5551C111.418 67.7384 112.31 72.222 112.31 76.75ZM70.26 48.31C65.3066 49.99 60.8233 52.8367 56.81 56.85C54.69 58.98 53.39 61.83 51.9 64.54C50.5866 66.92 49.78 69.11 49.48 71.11C47.68 83.18 52.2 94.14 62.4 100.8C71.97 107.05 85.28 106.79 94.51 100.17C99.2966 96.7367 102.827 91.9334 105.1 85.76C107.113 80.3134 107.187 74.5534 105.32 68.48C102.48 59.2 96.1233 52.6734 86.25 48.9C84.8833 48.38 83.5366 48.1034 82.21 48.07C79.56 48 77.16 47.3 74.48 47.52C72.8066 47.66 71.4 47.9234 70.26 48.31Z" fill="#EDEDED"/>
<path d="M20.2103 46.3161C20.1702 47.4641 20.3167 48.4011 20.5375 48.4088C20.7582 48.4165 20.9697 47.492 21.0098 46.344C21.0499 45.1959 20.9034 44.259 20.6826 44.2513C20.4619 44.2436 20.2504 45.168 20.2103 46.3161Z" fill="#B2B2B2"/>
<path d="M70.26 48.31C71.4 47.9234 72.8067 47.66 74.48 47.52C77.16 47.3 79.56 48 82.21 48.07C83.5367 48.1034 84.8833 48.38 86.25 48.9C96.1233 52.6734 102.48 59.2 105.32 68.48C107.187 74.5534 107.113 80.3134 105.1 85.76C102.827 91.9334 99.2967 96.7367 94.51 100.17C85.28 106.79 71.97 107.05 62.4 100.8C52.2 94.14 47.68 83.18 49.48 71.11C49.78 69.11 50.5867 66.92 51.9 64.54C53.39 61.83 54.69 58.98 56.81 56.85C60.8233 52.8367 65.3067 49.99 70.26 48.31ZM105.55 76.74C105.55 73.1024 104.834 69.5004 103.441 66.1397C102.049 62.779 100.009 59.7254 97.4368 57.1532C94.8647 54.581 91.811 52.5406 88.4503 51.1486C85.0896 49.7565 81.4876 49.04 77.85 49.04C70.5035 49.04 63.4579 51.9584 58.2631 57.1532C53.0684 62.3479 50.15 69.3935 50.15 76.74C50.15 80.3776 50.8665 83.9796 52.2585 87.3404C53.6506 90.7011 55.6909 93.7547 58.2631 96.3269C63.4579 101.522 70.5035 104.44 77.85 104.44C81.4876 104.44 85.0896 103.724 88.4503 102.332C91.811 100.939 94.8647 98.8991 97.4368 96.3269C100.009 93.7547 102.049 90.7011 103.441 87.3404C104.834 83.9796 105.55 80.3776 105.55 76.74Z" fill="#B2B2B2"/>
<path d="M105.55 76.74C105.55 80.3777 104.834 83.9797 103.441 87.3404C102.049 90.7011 100.009 93.7547 97.4369 96.3269C94.8647 98.8991 91.8111 100.939 88.4504 102.332C85.0896 103.724 81.4876 104.44 77.85 104.44C74.2124 104.44 70.6104 103.724 67.2497 102.332C63.889 100.939 60.8354 98.8991 58.2632 96.3269C53.0684 91.1321 50.15 84.0865 50.15 76.74C50.15 69.3935 53.0684 62.3479 58.2632 57.1532C63.4579 51.9584 70.5035 49.04 77.85 49.04C81.4876 49.04 85.0896 49.7565 88.4504 51.1486C91.8111 52.5406 94.8647 54.581 97.4369 57.1532C100.009 59.7254 102.049 62.779 103.441 66.1397C104.834 69.5004 105.55 73.1024 105.55 76.74ZM81.43 76.99C86.3 75.22 89.04 71.32 87.11 65.95C84.57 58.84 74.58 58.52 70 63.77C69.2134 64.6767 68.8534 65.6967 68.92 66.83C68.94 67.2567 69.12 67.6 69.46 67.86C73.16 70.73 73.94 65.99 76.64 65.17C82.22 63.49 84.46 71.08 79.07 73.3C78.1034 73.6934 77.1734 74.1167 76.28 74.57C76.0949 74.6631 75.9402 74.8076 75.8339 74.9864C75.7277 75.1653 75.6743 75.3712 75.68 75.58L75.92 81.4C75.96 82.5534 76.5467 83.2367 77.68 83.45C78.38 83.5767 79.0667 83.2534 79.74 82.48C80.0379 82.143 80.214 81.7133 80.24 81.26L80.45 78.29C80.4684 78.0013 80.571 77.7242 80.7452 77.4932C80.9194 77.2621 81.1575 77.0872 81.43 76.99ZM81.65 89.73C81.65 89.2612 81.5577 88.797 81.3783 88.3639C81.1989 87.9307 80.9359 87.5372 80.6044 87.2057C80.2729 86.8742 79.8793 86.6112 79.4462 86.4318C79.0131 86.2524 78.5488 86.16 78.08 86.16C77.1332 86.16 76.2252 86.5362 75.5556 87.2057C74.8861 87.8752 74.51 88.7832 74.51 89.73C74.51 90.6769 74.8861 91.5849 75.5556 92.2544C76.2252 92.9239 77.1332 93.3 78.08 93.3C78.5488 93.3 79.0131 93.2077 79.4462 93.0283C79.8793 92.8489 80.2729 92.5859 80.6044 92.2544C80.9359 91.9229 81.1989 91.5293 81.3783 91.0962C81.5577 90.6631 81.65 90.1989 81.65 89.73Z" fill="white"/>
<path d="M20.2002 53.3355C20.1617 54.561 20.3363 55.5609 20.5902 55.5689C20.8441 55.5768 21.0812 54.5899 21.1197 53.3644C21.1582 52.1389 20.9836 51.139 20.7297 51.1311C20.4758 51.1231 20.2387 52.11 20.2002 53.3355Z" fill="#B2B2B2"/>
<path d="M20.261 60.2877C20.3283 61.3294 20.575 62.1614 20.812 62.1461C21.049 62.1307 21.1865 61.2739 21.1192 60.2323C21.0518 59.1906 20.8051 58.3586 20.5681 58.3739C20.3311 58.3893 20.1936 59.2461 20.261 60.2877Z" fill="#B2B2B2"/>
<path d="M80.45 78.2901L80.24 81.2601C80.2141 81.7133 80.038 82.143 79.74 82.4801C79.0667 83.2534 78.38 83.5767 77.68 83.4501C76.5467 83.2367 75.96 82.5534 75.92 81.4001L75.68 75.5801C75.6743 75.3712 75.7277 75.1653 75.8339 74.9864C75.9402 74.8076 76.0949 74.6631 76.28 74.5701C77.1734 74.1167 78.1034 73.6934 79.07 73.3001C84.46 71.0801 82.22 63.4901 76.64 65.1701C73.94 65.9901 73.16 70.7301 69.46 67.8601C69.12 67.6001 68.94 67.2567 68.92 66.8301C68.8534 65.6967 69.2134 64.6767 70 63.7701C74.58 58.5201 84.57 58.8401 87.11 65.9501C89.04 71.3201 86.3 75.2201 81.43 76.9901C81.1575 77.0872 80.9194 77.2622 80.7452 77.4932C80.5711 77.7243 80.4684 78.0013 80.45 78.2901Z" fill="#5DD545"/>
<path d="M20.1801 67.5711C20.1576 68.6479 20.3273 69.5247 20.5592 69.5295C20.7911 69.5344 20.9974 68.6655 21.02 67.5887C21.0425 66.512 20.8728 65.6352 20.6409 65.6304C20.409 65.6255 20.2027 66.4944 20.1801 67.5711Z" fill="#B2B2B2"/>
<path d="M20.22 75.52C20.35 74.65 20.01 73.86 20.47 73.04C20.4884 73.0026 20.5186 72.9722 20.556 72.9537C20.5934 72.9351 20.6358 72.9294 20.6768 72.9373C20.7177 72.9453 20.7549 72.9665 20.7826 72.9977C20.8103 73.0289 20.827 73.0684 20.83 73.11C20.9367 74.23 20.93 75.3133 20.81 76.36C20.7367 77.0267 20.5733 77.05 20.32 76.43C20.2067 76.1433 20.1733 75.84 20.22 75.52Z" fill="#B2B2B2"/>
<path d="M21.07 83.26C21.1967 83.48 21.1367 83.6999 20.89 83.9199C20.45 84.3066 20.2334 84.2099 20.24 83.6299L20.25 80.29C20.2505 80.2071 20.2812 80.1272 20.3363 80.0654C20.3915 80.0036 20.4674 79.964 20.5497 79.9542C20.632 79.9444 20.715 79.9649 20.7832 80.012C20.8514 80.0591 20.9001 80.1295 20.92 80.2099C21.1133 81.0566 21.1367 81.9166 20.99 82.79C20.9634 82.9566 20.99 83.1133 21.07 83.26Z" fill="#B2B2B2"/>
<path d="M78.08 93.3C80.0517 93.3 81.65 91.7017 81.65 89.73C81.65 87.7584 80.0517 86.16 78.08 86.16C76.1084 86.16 74.51 87.7584 74.51 89.73C74.51 91.7017 76.1084 93.3 78.08 93.3Z" fill="#5DD545"/>
<path d="M21.31 89.4C21.3166 90.0667 21.2033 90.5367 20.97 90.81C20.6966 91.13 20.4833 91.0967 20.33 90.71C20.0766 90.09 20.02 89.52 20.16 89C20.0866 88.18 20.1533 87.59 20.36 87.23C20.4866 87.01 20.6466 86.9833 20.84 87.15C21.14 87.43 21.2966 88.18 21.31 89.4Z" fill="#B2B2B2"/>
<path d="M21.12 94.5099L21 98.2399C20.9933 98.3666 20.9267 98.4233 20.8 98.4099L20.51 98.3899C20.4401 98.3873 20.374 98.3578 20.3255 98.3074C20.277 98.2571 20.25 98.1899 20.25 98.1199L20.28 94.3999C20.2826 94.3433 20.3069 94.2899 20.3479 94.2508C20.3888 94.2117 20.4433 94.1899 20.5 94.1899H20.8C21.02 94.1899 21.1267 94.2966 21.12 94.5099Z" fill="#B2B2B2"/>
<path d="M22.6099 103.1C23.3437 103.811 24.0818 104.24 24.2586 104.057C24.4354 103.875 23.9839 103.151 23.2502 102.44C22.5164 101.729 21.7783 101.3 21.6015 101.483C21.4247 101.665 21.8762 102.389 22.6099 103.1Z" fill="#B2B2B2"/>
<path d="M29.09 105.1C29.7634 105.04 30.4267 105.043 31.08 105.11C31.58 105.163 31.6 105.29 31.14 105.49C30.04 105.963 28.9434 105.967 27.85 105.5C27.47 105.333 27.4634 105.157 27.83 104.97C28.0634 104.85 28.2867 104.85 28.5 104.97C28.68 105.077 28.8767 105.12 29.09 105.1Z" fill="#B2B2B2"/>
<path d="M45.1201 105.7C44.2201 105.98 43.2867 106.06 42.3201 105.94C42.0467 105.9 41.9334 105.747 41.9801 105.48C42.0334 105.193 42.2034 105.04 42.4901 105.02C43.3434 104.96 44.1934 104.963 45.0401 105.03C46.2001 105.123 46.2267 105.347 45.1201 105.7Z" fill="#B2B2B2"/>
<path d="M50.7668 105.9C51.7824 105.864 52.5982 105.621 52.5889 105.356C52.5797 105.091 51.7489 104.905 50.7333 104.94C49.7177 104.976 48.9019 105.219 48.9112 105.484C48.9204 105.749 49.7512 105.935 50.7668 105.9Z" fill="#B2B2B2"/>
<path d="M36.7018 105.89C37.7949 105.857 38.6757 105.652 38.6691 105.431C38.6625 105.21 37.7711 105.058 36.6781 105.09C35.5851 105.123 34.7043 105.328 34.7108 105.549C34.7174 105.77 35.6088 105.922 36.7018 105.89Z" fill="#B2B2B2"/>
<path d="M109.525 109.663L109.495 109.69C109.059 110.063 109.008 110.72 109.382 111.156L126.068 130.624C126.442 131.06 127.098 131.11 127.535 130.737L127.565 130.71C128.001 130.337 128.052 129.68 127.678 129.244L110.992 109.776C110.618 109.34 109.962 109.29 109.525 109.663Z" fill="white"/>
</svg>
